<svg width="800" height="800" viewBox="0 0 800 800" fill="none" xmlns="http://www.w3.org/2000/svg">
<g clip-path="url(#clip0_1920_24)">
<path d="M221.557 137.501C238.993 137.501 253.125 120.714 253.125 100V53.3307V37.5007C253.125 16.7869 238.993 0 221.557 0H198.757C181.32 0 167.188 16.7869 167.188 37.5007V53.332V100C167.188 120.712 181.32 137.501 198.757 137.501H221.557Z" fill="black"/>
<path d="M588.744 137.501C606.182 137.501 620.312 120.714 620.312 100V53.3307V37.5007C620.312 16.7869 606.182 0 588.744 0H565.945C548.507 0 534.376 16.7869 534.376 37.5007V53.332V100C534.376 120.712 548.508 137.501 565.945 137.501H588.744Z" fill="black"/>
<path d="M290.625 68.7503V100C290.625 141.357 259.643 175 221.557 175H198.757C160.669 175 129.689 141.357 129.689 100V68.7503H110C56.6195 68.7503 13.3306 112.031 13.3306 165.42V703.337C13.3306 756.719 56.6182 800 110 800H690C743.382 800 786.669 756.719 786.669 703.332V165.418C786.669 112.031 743.388 68.749 690 68.749H657.813V100C657.813 141.357 626.833 175 588.744 175H565.945C527.856 175 496.876 141.357 496.876 100V68.7503H290.625ZM741.251 256.25V695C741.251 721.901 719.4 743.75 692.501 743.75H107.499C80.6247 743.75 58.7502 721.901 58.7502 695V256.25H741.251Z" fill="black"/>
<rect x="148" y="343" width="138" height="138" rx="25" fill="black"/>
</g>
<defs>
<clipPath id="clip0_1920_24">
<rect width="800" height="800" fill="white"/>
</clipPath>
</defs>
</svg>
